# Blender v2.90.1 OBJ File: 'celery.blend'
# www.blender.org
mtllib celery.mtl
o Cylinder
v -1.350000 0.000000 -1.000000
v 1.350000 -0.000000 -1.000000
v -1.350000 -0.195090 -0.980785
v 1.350000 -0.195090 -0.980785
v -1.350000 -0.382683 -0.923880
v 1.350000 -0.382684 -0.923880
v -1.350000 -0.555570 -0.831470
v 1.350000 -0.555570 -0.831470
v -1.350000 -0.707107 -0.707107
v 1.350000 -0.707107 -0.707107
v -1.350000 -0.831470 -0.555570
v 1.350000 -0.831470 -0.555570
v -1.350000 -0.923879 -0.382683
v 1.350000 -0.923880 -0.382683
v -1.350000 -0.980785 -0.195090
v 1.350000 -0.980785 -0.195090
v -1.350000 -1.000000 -0.000000
v 1.350000 -1.000000 -0.000000
v -1.350000 -0.980785 0.195090
v 1.350000 -0.980785 0.195090
v -1.350000 -0.923880 0.382683
v 1.350000 -0.923880 0.382683
v -1.350000 -0.831470 0.555570
v 1.350000 -0.831470 0.555570
v -1.350000 -0.707107 0.707107
v 1.350000 -0.707107 0.707107
v -1.350000 -0.555570 0.831470
v 1.350000 -0.555570 0.831470
v -1.350000 -0.382683 0.923880
v 1.350000 -0.382683 0.923880
v -1.350000 -0.195090 0.980785
v 1.350000 -0.195090 0.980785
v -1.350000 0.000000 1.000000
v 1.350000 0.000000 1.000000
v -1.350000 0.195091 0.980785
v 1.350000 0.195091 0.980785
v -1.350000 0.382684 0.923879
v 1.350000 0.382684 0.923879
v -1.350000 0.555571 0.831469
v 1.350000 0.555571 0.831469
v -1.350000 0.555569 -0.831470
v 1.350000 0.555569 -0.831470
v -1.350000 0.382682 -0.923880
v 1.350000 0.382682 -0.923880
v -1.350000 0.195089 -0.980786
v 1.350000 0.195089 -0.980786
v -1.350000 0.000000 -0.580000
v 1.350000 -0.000000 -0.580000
v -1.350000 -0.113159 -0.568860
v 1.350000 -0.113159 -0.568860
v -1.350000 -0.221961 -0.535860
v 1.350000 -0.221961 -0.535860
v -1.350000 -0.322235 -0.482262
v 1.350000 -0.322236 -0.482262
v -1.350000 -0.410132 -0.410132
v 1.350000 -0.410132 -0.410132
v -1.350000 -0.482262 -0.322235
v 1.350000 -0.482262 -0.322235
v -1.350000 -0.535860 -0.221961
v 1.350000 -0.535860 -0.221961
v -1.350000 -0.568860 -0.113159
v 1.350000 -0.568861 -0.113159
v -1.350000 -0.580000 -0.000000
v 1.350000 -0.580000 -0.000000
v -1.350000 -0.568860 0.113159
v 1.350000 -0.568861 0.113159
v -1.350000 -0.535860 0.221961
v 1.350000 -0.535860 0.221961
v -1.350000 -0.482262 0.322235
v 1.350000 -0.482262 0.322235
v -1.350000 -0.410132 0.410132
v 1.350000 -0.410132 0.410132
v -1.350000 -0.322235 0.482262
v 1.350000 -0.322235 0.482262
v -1.350000 -0.221961 0.535860
v 1.350000 -0.221961 0.535860
v -1.350000 -0.113159 0.568861
v 1.350000 -0.113159 0.568861
v -1.350000 0.000000 0.580013
v 1.350000 0.000000 0.580013
v -1.350000 0.113160 0.568860
v 1.350000 0.113159 0.568860
v -1.350000 0.221962 0.535860
v 1.350000 0.221962 0.535860
v -1.350000 0.357587 0.461074
v 1.350000 0.357587 0.461074
v -1.350000 0.357586 -0.461075
v 1.350000 0.357586 -0.461075
v -1.350000 0.221960 -0.535860
v 1.350000 0.221960 -0.535860
v -1.350000 0.113158 -0.568861
v 1.350000 0.113158 -0.568861
vt 1.000000 0.500000
vt 1.000000 1.000000
vt 0.968750 1.000000
vt 0.968750 0.500000
vt 0.937500 1.000000
vt 0.937500 0.500000
vt 0.906250 1.000000
vt 0.906250 0.500000
vt 0.875000 1.000000
vt 0.875000 0.500000
vt 0.843750 1.000000
vt 0.843750 0.500000
vt 0.812500 1.000000
vt 0.812500 0.500000
vt 0.781250 1.000000
vt 0.781250 0.500000
vt 0.750000 1.000000
vt 0.750000 0.500000
vt 0.718750 1.000000
vt 0.718750 0.500000
vt 0.687500 1.000000
vt 0.687500 0.500000
vt 0.656250 1.000000
vt 0.656250 0.500000
vt 0.625000 1.000000
vt 0.625000 0.500000
vt 0.593750 1.000000
vt 0.593750 0.500000
vt 0.562500 1.000000
vt 0.562500 0.500000
vt 0.531250 1.000000
vt 0.531250 0.500000
vt 0.500000 1.000000
vt 0.500000 0.500000
vt 0.468750 1.000000
vt 0.468750 0.500000
vt 0.437500 1.000000
vt 0.437500 0.500000
vt 0.406250 1.000000
vt 0.406250 0.500000
vt 0.093750 0.500000
vt 0.093750 1.000000
vt 0.062500 1.000000
vt 0.062500 0.500000
vt 0.031250 1.000000
vt 0.031250 0.500000
vt 0.000000 1.000000
vt 0.000000 0.500000
vt 1.000000 0.500000
vt 0.968750 0.500000
vt 0.968750 1.000000
vt 1.000000 1.000000
vt 0.937500 0.500000
vt 0.937500 1.000000
vt 0.906250 0.500000
vt 0.906250 1.000000
vt 0.875000 0.500000
vt 0.875000 1.000000
vt 0.843750 0.500000
vt 0.843750 1.000000
vt 0.812500 0.500000
vt 0.812500 1.000000
vt 0.781250 0.500000
vt 0.781250 1.000000
vt 0.750000 0.500000
vt 0.750000 1.000000
vt 0.718750 0.500000
vt 0.718750 1.000000
vt 0.687500 0.500000
vt 0.687500 1.000000
vt 0.656250 0.500000
vt 0.656250 1.000000
vt 0.625000 0.500000
vt 0.625000 1.000000
vt 0.593750 0.500000
vt 0.593750 1.000000
vt 0.562500 0.500000
vt 0.562500 1.000000
vt 0.531250 0.500000
vt 0.531250 1.000000
vt 0.500000 0.500000
vt 0.500000 1.000000
vt 0.468750 0.500000
vt 0.468750 1.000000
vt 0.437500 0.500000
vt 0.437500 1.000000
vt 0.406250 0.500000
vt 0.406250 1.000000
vt 0.093750 0.500000
vt 0.062500 0.500000
vt 0.062500 1.000000
vt 0.093750 1.000000
vt 0.031250 0.500000
vt 0.031250 1.000000
vt 0.000000 0.500000
vt 0.000000 1.000000
vn -0.0000 -0.0980 -0.9952
vn -0.0000 -0.2903 -0.9569
vn -0.0000 -0.4714 -0.8819
vn -0.0000 -0.6344 -0.7730
vn -0.0000 -0.7730 -0.6344
vn -0.0000 -0.8819 -0.4714
vn -0.0000 -0.9569 -0.2903
vn -0.0000 -0.9952 -0.0980
vn -0.0000 -0.9952 0.0980
vn -0.0000 -0.9569 0.2903
vn -0.0000 -0.8819 0.4714
vn -0.0000 -0.7730 0.6344
vn -0.0000 -0.6344 0.7730
vn -0.0000 -0.4714 0.8819
vn -0.0000 -0.2903 0.9569
vn 0.0000 -0.0980 0.9952
vn 0.0000 0.0980 0.9952
vn 0.0000 0.2903 0.9569
vn 0.0000 0.4714 0.8819
vn 0.0000 0.4714 -0.8819
vn 0.0000 0.2903 -0.9569
vn -0.0000 0.0980 -0.9952
vn 0.0000 0.2903 0.9570
vn 0.0000 0.6344 0.7730
vn 0.0000 0.7730 0.6344
vn 0.0000 0.8819 0.4714
vn 0.0000 0.9570 0.2903
vn 0.0000 0.9952 0.0980
vn 0.0000 0.9952 -0.0980
vn 0.0000 0.9570 -0.2903
vn 0.0000 0.8819 -0.4714
vn 0.0000 0.7730 -0.6344
vn 0.0000 0.6344 -0.7730
vn 0.0000 0.2903 -0.9570
vn 0.0000 0.0981 -0.9952
vn 0.0000 -0.0981 -0.9952
vn -0.0000 -0.2903 -0.9570
vn -0.0000 -0.4829 -0.8757
vn -0.0000 -0.4829 0.8757
vn -0.0000 -0.2902 0.9570
vn -1.0000 -0.0000 0.0000
vn 1.0000 0.0000 0.0000
usemtl None
s off
f 1/1/1 2/2/1 4/3/1 3/4/1
f 3/4/2 4/3/2 6/5/2 5/6/2
f 5/6/3 6/5/3 8/7/3 7/8/3
f 7/8/4 8/7/4 10/9/4 9/10/4
f 9/10/5 10/9/5 12/11/5 11/12/5
f 11/12/6 12/11/6 14/13/6 13/14/6
f 13/14/7 14/13/7 16/15/7 15/16/7
f 15/16/8 16/15/8 18/17/8 17/18/8
f 17/18/9 18/17/9 20/19/9 19/20/9
f 19/20/10 20/19/10 22/21/10 21/22/10
f 21/22/11 22/21/11 24/23/11 23/24/11
f 23/24/12 24/23/12 26/25/12 25/26/12
f 25/26/13 26/25/13 28/27/13 27/28/13
f 27/28/14 28/27/14 30/29/14 29/30/14
f 29/30/15 30/29/15 32/31/15 31/32/15
f 31/32/16 32/31/16 34/33/16 33/34/16
f 33/34/17 34/33/17 36/35/17 35/36/17
f 35/36/18 36/35/18 38/37/18 37/38/18
f 37/38/19 38/37/19 40/39/19 39/40/19
f 41/41/20 42/42/20 44/43/20 43/44/20
f 43/44/21 44/43/21 46/45/21 45/46/21
f 45/46/22 46/45/22 2/47/22 1/48/22
f 47/49/17 49/50/17 50/51/17 48/52/17
f 49/50/23 51/53/23 52/54/23 50/51/23
f 51/53/19 53/55/19 54/56/19 52/54/19
f 53/55/24 55/57/24 56/58/24 54/56/24
f 55/57/25 57/59/25 58/60/25 56/58/25
f 57/59/26 59/61/26 60/62/26 58/60/26
f 59/61/27 61/63/27 62/64/27 60/62/27
f 61/63/28 63/65/28 64/66/28 62/64/28
f 63/65/29 65/67/29 66/68/29 64/66/29
f 65/67/30 67/69/30 68/70/30 66/68/30
f 67/69/31 69/71/31 70/72/31 68/70/31
f 69/71/32 71/73/32 72/74/32 70/72/32
f 71/73/33 73/75/33 74/76/33 72/74/33
f 73/75/20 75/77/20 76/78/20 74/76/20
f 75/77/34 77/79/34 78/80/34 76/78/34
f 77/79/35 79/81/35 80/82/35 78/80/35
f 79/81/36 81/83/36 82/84/36 80/82/36
f 81/83/37 83/85/37 84/86/37 82/84/37
f 83/85/38 85/87/38 86/88/38 84/86/38
f 87/89/39 89/90/39 90/91/39 88/92/39
f 89/90/40 91/93/40 92/94/40 90/91/40
f 91/93/16 47/95/16 48/96/16 92/94/16
f 1/1/41 3/4/41 49/50/41 47/49/41
f 4/3/42 2/2/42 48/52/42 50/51/42
f 3/4/41 5/6/41 51/53/41 49/50/41
f 6/5/42 4/3/42 50/51/42 52/54/42
f 5/6/41 7/8/41 53/55/41 51/53/41
f 8/7/42 6/5/42 52/54/42 54/56/42
f 7/8/41 9/10/41 55/57/41 53/55/41
f 10/9/42 8/7/42 54/56/42 56/58/42
f 9/10/41 11/12/41 57/59/41 55/57/41
f 12/11/42 10/9/42 56/58/42 58/60/42
f 11/12/41 13/14/41 59/61/41 57/59/41
f 14/13/42 12/11/42 58/60/42 60/62/42
f 13/14/41 15/16/41 61/63/41 59/61/41
f 16/15/42 14/13/42 60/62/42 62/64/42
f 15/16/41 17/18/41 63/65/41 61/63/41
f 18/17/42 16/15/42 62/64/42 64/66/42
f 17/18/41 19/20/41 65/67/41 63/65/41
f 20/19/42 18/17/42 64/66/42 66/68/42
f 19/20/41 21/22/41 67/69/41 65/67/41
f 22/21/42 20/19/42 66/68/42 68/70/42
f 21/22/41 23/24/41 69/71/41 67/69/41
f 24/23/42 22/21/42 68/70/42 70/72/42
f 23/24/41 25/26/41 71/73/41 69/71/41
f 26/25/42 24/23/42 70/72/42 72/74/42
f 25/26/41 27/28/41 73/75/41 71/73/41
f 28/27/42 26/25/42 72/74/42 74/76/42
f 27/28/41 29/30/41 75/77/41 73/75/41
f 30/29/42 28/27/42 74/76/42 76/78/42
f 29/30/41 31/32/41 77/79/41 75/77/41
f 32/31/42 30/29/42 76/78/42 78/80/42
f 31/32/41 33/34/41 79/81/41 77/79/41
f 34/33/42 32/31/42 78/80/42 80/82/42
f 33/34/41 35/36/41 81/83/41 79/81/41
f 36/35/42 34/33/42 80/82/42 82/84/42
f 35/36/41 37/38/41 83/85/41 81/83/41
f 38/37/42 36/35/42 82/84/42 84/86/42
f 37/38/41 39/40/41 85/87/41 83/85/41
f 40/39/42 38/37/42 84/86/42 86/88/42
f 39/40/31 40/39/31 86/88/31 85/87/31
f 42/42/26 41/41/26 87/89/26 88/92/26
f 41/41/41 43/44/41 89/90/41 87/89/41
f 44/43/42 42/42/42 88/92/42 90/91/42
f 43/44/41 45/46/41 91/93/41 89/90/41
f 46/45/42 44/43/42 90/91/42 92/94/42
f 45/46/41 1/48/41 47/95/41 91/93/41
f 2/47/42 46/45/42 92/94/42 48/96/42
